<?xml version="1.0" encoding="UTF-8" ?>
<!DOCTYPE svg PUBLIC "-//W3C//DTD SVG 1.1//EN" "http://www.w3.org/Graphics/SVG/1.1/DTD/svg11.dtd">
<svg width="1047pt" height="333pt" viewBox="0 0 1047 333" version="1.1" xmlns="http://www.w3.org/2000/svg">
<g id="#ffffffff">
</g>
<g id="#fe0000ff">
<path fill="#fe0000" opacity="1.00" d=" M 213.15 33.06 C 224.83 29.98 237.03 31.02 248.98 30.85 C 256.51 31.08 264.81 31.21 271.17 35.81 C 277.36 41.00 279.93 49.06 282.01 56.58 C 283.64 77.12 282.97 97.76 283.02 118.34 C 278.74 118.42 274.42 118.65 270.20 117.85 C 264.24 116.23 258.35 118.88 252.39 119.16 C 249.78 119.44 247.15 119.48 244.53 119.59 C 244.40 109.52 244.64 99.46 244.36 89.39 C 244.45 83.96 245.68 77.54 241.93 73.01 C 239.84 70.21 235.95 72.26 234.89 74.91 C 232.71 80.19 234.47 86.29 231.79 91.46 C 235.02 98.53 232.42 106.44 234.24 113.78 C 235.21 117.91 238.62 120.76 241.82 123.24 C 245.33 125.95 248.86 128.64 252.44 131.26 C 254.01 132.41 255.58 133.57 257.10 134.79 C 263.72 140.51 271.11 145.67 275.94 153.12 C 278.89 157.49 280.21 162.65 281.83 167.60 C 283.24 181.01 283.07 194.53 283.08 208.00 C 283.04 222.34 283.29 236.70 282.58 251.03 C 282.24 256.73 281.55 262.63 278.68 267.69 C 276.48 271.40 274.94 275.70 271.49 278.48 C 267.49 281.60 262.36 282.73 257.43 283.32 C 244.53 284.45 231.50 284.83 218.62 283.25 C 214.45 282.70 210.50 281.15 206.84 279.13 C 199.12 272.85 196.68 262.50 195.97 253.02 C 195.17 241.03 195.53 229.00 195.44 217.00 C 195.57 211.50 194.89 205.88 196.44 200.52 C 197.52 197.86 195.22 195.58 195.05 193.01 C 194.76 188.51 195.08 184.00 195.53 179.53 C 206.92 179.38 218.31 179.71 229.69 179.34 C 231.03 179.50 232.85 179.10 233.64 180.54 C 233.55 185.46 233.50 190.38 233.51 195.31 C 233.55 206.87 233.45 218.44 233.53 230.00 C 233.77 233.70 233.70 237.87 236.11 240.93 C 237.80 242.90 240.40 242.07 242.35 241.06 C 244.91 236.82 244.51 231.73 244.53 226.99 C 244.41 214.85 244.72 202.71 244.25 190.57 C 244.16 186.56 244.03 182.04 241.03 179.00 C 237.26 175.04 232.22 172.57 228.49 168.55 C 225.62 165.24 221.42 163.67 218.02 161.02 C 214.23 158.11 210.71 154.86 206.96 151.90 C 199.84 145.30 196.86 135.51 196.10 126.08 C 195.01 111.75 195.58 97.36 195.44 83.00 C 195.54 72.51 195.16 61.86 197.49 51.56 C 199.31 43.41 204.72 35.32 213.15 33.06 Z" />
<path fill="#fe0000" opacity="1.00" d=" M 16.85 32.11 C 34.56 32.31 52.28 31.75 69.98 32.64 C 77.85 32.78 86.32 33.39 92.97 38.06 C 97.80 41.51 100.14 47.24 101.88 52.70 C 104.00 61.97 104.27 71.53 104.26 81.00 C 104.16 93.66 104.40 106.33 104.13 118.99 C 103.47 129.32 103.37 140.19 98.63 149.65 C 96.47 154.18 92.20 157.08 87.93 159.40 C 93.95 162.78 98.55 168.21 100.85 174.72 C 101.15 175.39 101.41 176.08 101.63 176.78 C 104.46 187.94 104.15 199.57 104.25 211.00 C 104.23 235.13 104.27 259.26 104.23 283.39 C 95.94 283.44 87.64 283.46 79.36 283.34 C 79.32 283.66 79.25 284.31 79.22 284.64 C 75.60 284.37 71.98 284.48 68.36 284.38 C 67.84 284.14 66.81 283.65 66.29 283.41 C 66.14 263.28 66.31 243.14 66.20 223.00 C 66.09 216.99 67.11 210.96 66.16 204.98 C 65.20 198.71 64.91 191.99 61.48 186.46 C 60.17 184.23 57.50 183.56 55.30 182.54 C 54.97 186.69 54.84 190.85 54.87 195.00 C 54.95 224.47 54.81 253.93 54.94 283.40 C 47.07 283.44 39.20 283.46 31.33 283.33 C 31.28 283.66 31.18 284.32 31.13 284.65 C 26.45 284.30 21.76 284.45 17.07 284.52 C 15.86 269.05 17.93 253.38 15.75 237.99 C 15.75 235.16 19.09 233.70 19.26 230.96 C 18.93 227.85 16.36 225.32 16.71 222.06 C 16.83 158.75 16.56 95.43 16.85 32.11 M 55.09 73.10 C 54.75 94.49 54.78 115.91 55.08 137.31 C 58.43 137.02 63.26 137.66 64.74 133.76 C 66.20 129.36 66.05 124.59 66.24 120.00 C 66.19 106.39 66.52 92.77 65.49 79.19 C 65.27 77.07 64.44 74.64 62.34 73.73 C 59.98 73.11 57.51 73.24 55.09 73.10 Z" />
<path fill="#fe0000" opacity="1.00" d=" M 122.75 32.79 C 124.70 31.92 126.89 32.18 128.97 32.11 C 135.01 32.26 141.10 31.76 147.10 32.72 C 158.42 31.50 169.85 32.44 181.22 32.13 C 181.34 37.70 181.71 43.27 181.69 48.85 C 181.80 56.68 181.59 64.51 181.61 72.34 C 174.52 72.44 167.43 72.51 160.34 72.37 C 160.32 79.75 160.73 87.18 159.77 94.53 C 159.31 98.35 160.29 102.15 160.33 105.97 C 160.49 112.07 160.33 118.18 160.32 124.28 C 163.74 124.32 167.15 124.34 170.56 124.47 C 174.16 124.63 177.77 124.53 181.37 124.54 C 181.32 129.95 181.23 135.36 181.45 140.77 C 181.68 149.04 181.47 157.31 181.59 165.58 C 174.49 165.41 167.40 165.50 160.31 165.59 C 160.42 190.88 160.36 216.17 160.34 241.46 C 163.77 241.43 167.23 241.50 170.60 242.21 C 174.16 242.62 177.71 241.32 181.32 241.65 C 181.37 247.19 181.21 252.73 181.44 258.27 C 181.69 266.64 181.54 275.03 181.52 283.41 C 165.51 283.43 149.51 283.47 133.50 283.36 C 133.49 283.66 133.46 284.25 133.45 284.54 C 129.73 284.40 126.01 284.46 122.29 284.44 C 121.18 266.31 122.57 248.12 121.90 230.00 C 121.93 189.33 121.90 148.67 121.91 108.00 C 121.93 101.21 121.77 94.41 122.22 87.63 C 121.60 71.76 122.06 55.87 121.89 39.99 C 122.03 37.60 121.59 34.98 122.75 32.79 Z" />
<path fill="#fe0000" opacity="1.00" d=" M 299.76 32.15 C 312.43 32.22 325.10 31.90 337.77 32.14 C 337.99 37.68 337.76 43.23 337.95 48.77 C 338.41 79.17 338.02 109.59 338.15 140.00 C 338.06 187.79 338.32 235.59 338.02 283.38 C 327.47 283.45 316.91 283.48 306.36 283.32 C 306.32 283.64 306.25 284.29 306.21 284.62 C 304.15 284.48 302.09 284.45 300.03 284.45 C 299.85 282.65 299.72 280.84 299.71 279.04 C 299.73 210.01 299.70 140.98 299.73 71.95 C 299.64 68.01 302.15 64.19 300.66 60.27 C 299.23 55.99 299.78 51.44 299.73 47.01 C 299.91 42.06 299.52 37.10 299.76 32.15 Z" />
<path fill="#fe0000" opacity="1.00" d=" M 357.00 32.16 C 377.66 32.33 398.36 31.57 419.01 32.93 C 425.39 33.39 432.50 35.15 436.13 40.94 C 442.50 49.17 443.59 59.82 444.45 69.84 C 445.48 97.55 444.96 125.28 445.08 153.00 C 444.93 183.69 445.49 214.38 444.60 245.06 C 444.25 255.46 442.97 266.76 436.00 275.01 C 430.11 281.81 420.48 282.76 412.05 282.82 C 395.68 283.91 379.26 282.98 362.90 283.68 C 362.57 283.79 361.90 284.02 361.57 284.13 C 360.17 284.62 358.66 284.41 357.21 284.48 C 356.43 260.32 357.23 236.12 356.95 211.94 C 356.65 209.33 357.64 206.96 358.81 204.71 C 360.31 200.96 356.47 197.83 356.96 194.08 C 357.03 163.04 356.82 132.00 356.91 100.95 C 356.66 98.97 357.64 97.33 358.89 95.90 C 357.91 94.42 356.58 92.97 356.81 91.05 C 356.72 71.42 356.72 51.79 357.00 32.16 M 395.33 73.34 C 395.20 129.60 395.33 185.87 395.26 242.14 C 396.49 242.25 397.71 242.37 398.95 242.50 C 401.22 242.01 404.08 241.54 404.94 238.99 C 406.52 233.93 405.52 228.51 406.36 223.32 C 406.85 220.56 406.08 217.81 406.06 215.05 C 405.94 173.29 406.19 131.52 405.93 89.76 C 406.17 85.23 406.37 80.45 404.76 76.14 C 403.17 72.37 398.56 73.46 395.33 73.34 Z" />
<path fill="#fe0000" opacity="1.00" d=" M 462.73 32.16 C 474.47 32.23 486.22 31.89 497.96 32.14 C 500.21 32.11 502.17 34.61 504.41 33.41 C 509.92 31.04 516.08 32.55 521.89 32.14 C 521.91 38.48 521.78 44.83 522.26 51.17 C 522.65 58.23 521.73 65.30 522.22 72.36 C 515.21 72.46 508.20 72.47 501.20 72.38 C 500.50 84.91 500.93 97.46 500.79 110.00 C 500.80 114.81 500.38 119.72 501.64 124.43 C 508.39 124.77 515.16 124.44 521.92 124.57 C 521.88 129.71 521.86 134.84 522.09 139.97 C 522.25 148.46 522.13 156.96 522.12 165.45 C 515.15 165.53 508.18 165.58 501.22 165.43 C 500.47 179.61 500.93 193.81 500.80 208.00 C 500.92 219.17 500.55 230.36 500.99 241.52 L 501.82 241.61 C 508.51 241.90 515.22 241.65 521.92 241.71 C 521.86 246.79 521.88 251.87 522.12 256.94 C 522.22 265.75 522.14 274.56 522.12 283.37 C 502.73 283.61 483.34 283.15 463.95 283.61 L 462.75 283.67 C 462.39 270.45 462.70 257.21 462.58 243.98 C 462.43 241.20 463.13 238.51 463.71 235.82 C 463.91 232.85 462.53 230.01 462.61 227.03 C 462.57 165.02 462.61 103.01 462.59 41.00 C 462.58 38.05 462.61 35.11 462.73 32.16 Z" />
<path fill="#fe0000" opacity="1.00" d=" M 538.27 32.22 C 550.61 32.03 562.97 32.23 575.32 32.11 C 578.80 56.14 582.04 80.21 585.47 104.25 C 587.42 116.95 588.62 129.79 591.22 142.38 C 591.50 147.18 592.33 151.91 592.91 156.67 C 593.01 156.67 593.22 156.68 593.32 156.68 C 593.13 128.40 593.42 100.11 593.17 71.83 C 593.11 70.76 593.07 69.68 593.05 68.60 C 593.07 64.50 593.40 60.40 594.41 56.42 C 595.21 53.67 593.86 51.00 593.27 48.37 C 593.02 43.21 593.22 38.03 593.46 32.87 C 594.92 32.49 596.39 32.03 597.94 32.04 C 607.34 32.19 616.74 32.16 626.14 32.10 C 626.15 114.42 626.14 196.74 626.15 279.06 C 626.11 280.89 625.82 282.70 625.48 284.49 C 625.03 284.35 624.13 284.08 623.68 283.94 C 620.83 283.29 617.89 283.41 614.99 283.38 C 605.70 283.45 596.40 283.47 587.11 283.35 C 581.74 244.16 576.18 204.98 570.69 165.81 C 570.28 174.10 570.37 182.41 570.66 190.70 C 569.68 221.63 570.53 252.58 570.17 283.52 L 569.33 283.50 C 559.01 283.33 548.70 283.48 538.38 283.40 C 538.15 265.50 538.48 247.61 538.21 229.71 C 538.29 225.01 537.99 220.29 538.30 215.60 C 539.22 213.13 540.66 210.72 540.59 208.02 C 540.28 205.66 539.12 203.53 538.27 201.34 C 537.73 163.20 538.25 124.99 538.06 86.84 C 538.17 86.11 538.38 84.67 538.49 83.95 C 539.41 81.74 539.46 79.28 538.49 77.07 C 537.34 69.13 538.56 61.01 538.07 53.00 C 537.65 48.44 539.26 43.95 538.58 39.41 C 538.24 37.02 538.21 34.62 538.27 32.22 Z" />
<path fill="#fe0000" opacity="1.00" d=" M 636.85 32.11 C 651.25 32.18 665.66 32.12 680.07 32.13 C 682.43 32.05 684.69 32.83 686.92 33.55 C 688.25 33.04 689.55 32.28 691.02 32.18 C 698.40 31.80 705.80 32.18 713.19 32.27 C 713.37 43.85 713.12 55.44 713.16 67.02 C 713.08 69.20 713.35 71.60 712.02 73.48 C 710.77 73.49 709.53 73.40 708.31 73.20 C 703.71 72.47 699.04 72.50 694.41 72.78 C 694.37 78.17 694.46 83.57 694.26 88.95 C 693.98 145.30 694.22 201.65 694.14 258.00 C 693.92 266.77 694.64 275.58 693.65 284.31 C 692.28 284.43 690.91 284.55 689.56 284.70 C 689.54 284.36 689.51 283.70 689.49 283.37 C 678.28 283.43 667.07 283.46 655.86 283.39 C 655.82 213.21 655.81 143.02 655.87 72.83 C 649.46 72.82 643.05 72.76 636.64 72.85 C 636.60 64.85 636.52 56.84 636.64 48.83 C 636.79 43.26 636.59 37.68 636.85 32.11 Z" />
<path fill="#fe0000" opacity="1.00" d=" M 744.05 32.19 C 763.77 32.07 783.49 32.20 803.21 32.12 C 803.21 37.69 803.07 43.27 803.32 48.85 C 803.51 54.71 803.56 60.58 803.95 66.44 C 803.56 68.55 803.31 70.67 803.06 72.80 C 800.72 73.41 798.26 73.70 795.87 73.35 C 795.62 73.14 795.12 72.73 794.87 72.53 C 790.68 72.25 786.49 72.47 782.31 72.38 C 782.31 77.83 782.38 83.29 782.17 88.74 C 782.01 100.67 782.04 112.61 782.14 124.54 C 789.16 124.58 796.18 124.56 803.20 124.54 C 803.19 133.69 803.18 142.85 803.19 152.00 C 803.16 156.79 803.46 161.62 802.67 166.37 C 800.32 166.42 797.97 166.44 795.64 166.60 C 795.61 166.31 795.55 165.72 795.52 165.43 C 791.11 165.46 786.71 165.54 782.31 165.45 C 782.31 170.69 782.38 175.93 782.20 181.16 C 781.93 185.79 782.19 190.43 782.03 195.05 C 781.99 197.44 780.45 199.44 780.08 201.76 C 780.81 203.46 782.18 204.99 782.02 206.96 C 782.19 218.54 782.00 230.12 782.10 241.70 C 789.11 241.80 796.13 241.60 803.14 241.88 C 803.28 253.25 803.12 264.62 803.22 275.99 C 803.27 278.81 803.08 281.64 802.56 284.42 C 800.25 284.45 797.93 284.46 795.64 284.60 C 795.61 284.29 795.56 283.67 795.53 283.37 C 790.48 283.37 785.11 284.15 780.52 281.53 C 777.47 282.63 774.32 283.62 771.04 283.48 C 761.95 283.41 752.87 283.44 743.78 283.38 C 743.77 222.90 743.81 162.41 743.76 101.93 C 743.68 98.56 745.14 95.49 746.18 92.37 C 747.85 88.05 743.55 84.40 743.80 80.08 C 743.71 69.67 743.80 59.24 743.82 48.82 C 743.97 43.28 743.74 37.73 744.05 32.19 Z" />
<path fill="#fe0000" opacity="1.00" d=" M 811.07 32.18 C 823.09 32.12 835.12 32.11 847.15 32.18 C 847.80 47.88 848.73 63.57 849.39 79.26 C 849.57 83.59 850.21 87.97 849.35 92.28 C 848.77 94.61 850.08 96.78 850.38 99.05 C 850.78 102.25 850.67 105.49 850.74 108.71 C 850.92 108.57 851.26 108.28 851.43 108.14 C 851.42 126.43 853.17 144.67 853.70 162.94 C 854.68 173.33 854.23 183.81 855.46 194.18 C 858.19 145.76 860.60 97.32 863.20 48.89 C 863.65 43.33 863.94 37.77 864.14 32.20 C 876.13 32.07 888.13 32.16 900.13 32.15 C 892.17 110.72 884.43 189.33 876.36 267.89 C 875.78 273.42 875.43 278.98 874.40 284.45 C 871.78 284.45 869.17 284.44 866.57 284.54 C 866.57 284.25 866.58 283.67 866.58 283.37 C 855.01 283.42 843.44 283.48 831.87 283.37 C 828.52 240.71 824.77 198.08 821.22 155.43 C 820.82 150.65 820.17 145.88 820.28 141.08 C 820.31 137.91 821.59 134.68 820.56 131.55 C 819.57 128.54 818.55 125.50 818.35 122.31 C 816.41 97.81 814.24 73.33 812.18 48.83 C 811.71 43.29 811.03 37.75 811.07 32.18 Z" />
<path fill="#fe0000" opacity="1.00" d=" M 910.75 32.13 C 923.44 32.17 936.13 32.11 948.83 32.16 C 948.89 114.46 948.82 196.76 948.86 279.06 C 948.87 280.90 948.58 282.73 948.16 284.52 C 944.40 284.43 940.63 284.34 936.89 284.63 C 936.82 284.31 936.69 283.66 936.62 283.33 C 927.93 283.46 919.25 283.43 910.56 283.41 C 910.44 264.93 910.56 246.45 910.48 227.97 C 910.22 223.82 912.24 220.04 912.68 216.01 C 912.17 212.31 910.35 208.84 910.49 205.04 C 910.54 152.97 910.48 100.90 910.53 48.83 C 910.64 43.26 910.43 37.69 910.75 32.13 Z" />
<path fill="#fe0000" opacity="1.00" d=" M 967.83 32.17 C 980.51 32.10 993.20 32.17 1005.89 32.13 C 1005.90 101.85 1005.90 171.57 1005.89 241.28 C 1013.28 241.43 1020.67 241.25 1028.07 241.42 C 1029.23 244.83 1028.90 248.46 1028.92 252.01 C 1028.86 260.68 1028.85 269.35 1028.91 278.03 C 1028.89 280.14 1028.97 282.32 1028.26 284.35 C 1023.60 285.83 1019.84 281.59 1015.27 282.61 C 1008.58 283.81 1001.76 283.39 995.00 283.42 C 985.88 283.42 976.76 283.45 967.65 283.39 C 967.65 205.20 967.57 127.02 967.69 48.83 C 967.83 43.28 967.70 37.73 967.83 32.17 Z" />
</g>
<g id="#000000ff">
<path fill="#000000" opacity="1.00" d=" M 181.69 48.85 C 184.81 48.85 187.92 48.86 191.04 48.85 C 191.76 62.12 191.30 75.41 191.11 88.69 C 184.26 88.61 177.41 88.63 170.56 88.67 C 170.03 96.81 171.62 105.18 169.46 113.14 C 170.55 116.83 170.70 120.64 170.56 124.47 C 167.15 124.34 163.74 124.32 160.32 124.28 C 160.33 118.18 160.49 112.07 160.33 105.97 C 160.29 102.15 159.31 98.35 159.77 94.53 C 160.73 87.18 160.32 79.75 160.34 72.37 C 167.43 72.51 174.52 72.44 181.61 72.34 C 181.59 64.51 181.80 56.68 181.69 48.85 Z" />
<path fill="#000000" opacity="1.00" d=" M 337.95 48.77 C 339.68 48.75 341.42 48.75 343.16 48.75 C 343.39 132.05 343.17 215.35 343.27 298.64 C 330.89 298.59 318.51 298.65 306.14 298.62 C 306.13 293.95 305.99 289.28 306.21 284.62 C 306.25 284.29 306.32 283.64 306.36 283.32 C 316.91 283.48 327.47 283.45 338.02 283.38 C 338.32 235.59 338.06 187.79 338.15 140.00 C 338.02 109.59 338.41 79.17 337.95 48.77 Z" />
<path fill="#000000" opacity="1.00" d=" M 591.76 50.05 C 592.14 49.63 592.89 48.79 593.27 48.37 C 593.86 51.00 595.21 53.67 594.41 56.42 C 593.40 60.40 593.07 64.50 593.05 68.60 C 590.92 66.63 591.60 63.59 591.55 61.02 C 591.75 57.36 591.48 53.70 591.76 50.05 Z" />
<path fill="#000000" opacity="1.00" d=" M 633.77 48.85 C 634.49 48.84 635.92 48.84 636.64 48.83 C 636.52 56.84 636.60 64.85 636.64 72.85 C 643.05 72.76 649.46 72.82 655.87 72.83 C 655.81 143.02 655.82 213.21 655.86 283.39 C 667.07 283.46 678.28 283.43 689.49 283.37 C 689.51 283.70 689.54 284.36 689.56 284.70 C 689.60 289.36 689.55 294.03 689.53 298.70 C 677.19 298.54 664.86 298.64 652.53 298.64 C 652.47 228.79 652.61 158.93 652.45 89.07 C 646.22 89.01 639.99 89.02 633.76 89.07 C 633.78 75.66 633.77 62.25 633.77 48.85 Z" />
<path fill="#000000" opacity="1.00" d=" M 737.88 48.87 C 739.85 48.86 741.83 48.84 743.82 48.82 C 743.80 59.24 743.71 69.67 743.80 80.08 C 743.55 84.40 747.85 88.05 746.18 92.37 C 745.14 95.49 743.68 98.56 743.76 101.93 C 743.81 162.41 743.77 222.90 743.78 283.38 C 752.87 283.44 761.95 283.41 771.04 283.48 C 774.32 283.62 777.47 282.63 780.52 281.53 C 785.11 284.15 790.48 283.37 795.53 283.37 C 795.56 283.67 795.61 284.29 795.64 284.60 C 795.81 289.27 795.69 293.94 795.67 298.62 C 789.82 298.61 783.97 298.66 778.12 298.62 C 775.66 299.04 773.77 295.20 771.51 297.33 C 769.39 299.09 766.57 298.59 764.03 298.64 C 755.38 298.62 746.73 298.59 738.08 298.66 C 737.64 274.78 738.01 250.89 737.89 227.00 C 737.90 189.98 737.86 152.96 737.91 115.94 C 737.85 112.62 740.69 110.12 740.73 106.80 C 741.39 103.45 737.73 101.32 737.92 98.05 C 737.84 81.66 737.92 65.26 737.88 48.87 Z" />
<path fill="#000000" opacity="1.00" d=" M 803.32 48.85 C 806.27 48.86 809.22 48.86 812.18 48.83 C 814.24 73.33 816.41 97.81 818.35 122.31 C 818.55 125.50 819.57 128.54 820.56 131.55 C 821.59 134.68 820.31 137.91 820.28 141.08 C 820.17 145.88 820.82 150.65 821.22 155.43 C 824.77 198.08 828.52 240.71 831.87 283.37 C 843.44 283.48 855.01 283.42 866.58 283.37 C 866.58 283.67 866.57 284.25 866.57 284.54 C 866.23 289.25 865.77 293.96 865.21 298.65 C 851.40 298.42 837.49 298.98 823.74 298.39 C 819.62 252.30 816.05 206.16 812.13 160.04 C 811.62 156.63 812.76 153.35 813.13 150.00 C 813.41 147.09 810.58 145.02 810.70 142.12 C 808.86 119.98 807.11 97.82 805.26 75.68 C 804.93 72.58 804.60 69.48 803.95 66.44 C 803.56 60.58 803.51 54.71 803.32 48.85 Z" />
<path fill="#000000" opacity="1.00" d=" M 854.80 48.86 C 857.59 48.85 860.39 48.85 863.20 48.89 C 860.60 97.32 858.19 145.76 855.46 194.18 C 854.23 183.81 854.68 173.33 853.70 162.94 C 853.17 144.67 851.42 126.43 851.43 108.14 C 853.06 88.42 853.70 68.62 854.80 48.86 Z" />
<path fill="#000000" opacity="1.00" d=" M 899.62 48.88 C 903.25 48.84 906.89 48.87 910.53 48.83 C 910.48 100.90 910.54 152.97 910.49 205.04 C 910.35 208.84 912.17 212.31 912.68 216.01 C 912.24 220.04 910.22 223.82 910.48 227.97 C 910.56 246.45 910.44 264.93 910.56 283.41 C 919.25 283.43 927.93 283.46 936.62 283.33 C 936.69 283.66 936.82 284.31 936.89 284.63 C 937.39 289.29 936.98 293.99 936.86 298.66 C 924.61 298.60 912.36 298.59 900.11 298.67 C 899.60 280.11 900.04 261.53 899.87 242.97 C 899.66 239.75 900.71 236.71 901.88 233.78 C 903.41 230.02 899.68 226.85 899.95 223.08 C 899.80 187.72 899.93 152.36 899.89 117.00 C 899.74 94.29 900.21 71.57 899.62 48.88 Z" />
<path fill="#000000" opacity="1.00" d=" M 955.52 48.87 C 959.57 48.85 963.63 48.87 967.69 48.83 C 967.57 127.02 967.65 205.20 967.65 283.39 C 976.76 283.45 985.88 283.42 995.00 283.42 C 1001.76 283.39 1008.58 283.81 1015.27 282.61 C 1014.92 287.96 1015.19 293.32 1015.06 298.67 C 1012.17 298.49 1009.04 299.22 1006.46 297.58 C 1003.27 295.49 1000.19 298.77 996.95 298.63 C 983.15 298.67 969.35 298.53 955.55 298.69 C 955.48 215.42 955.54 132.14 955.52 48.87 Z" />
<path fill="#000000" opacity="1.00" d=" M 101.88 52.70 C 108.62 55.45 112.18 62.49 113.69 69.23 C 116.39 81.28 116.06 93.73 116.10 106.00 C 116.01 121.38 116.59 136.85 114.49 152.13 C 113.35 161.03 109.94 171.13 100.85 174.72 C 98.55 168.21 93.95 162.78 87.93 159.40 C 92.20 157.08 96.47 154.18 98.63 149.65 C 103.37 140.19 103.47 129.32 104.13 118.99 C 104.40 106.33 104.16 93.66 104.26 81.00 C 104.27 71.53 104.00 61.97 101.88 52.70 Z" />
<path fill="#000000" opacity="1.00" d=" M 282.01 56.58 C 287.97 63.93 289.12 73.78 289.55 82.91 C 290.26 100.03 289.71 117.18 289.90 134.31 C 284.23 133.91 277.95 135.75 272.96 132.24 C 268.35 135.90 262.42 133.93 257.10 134.79 C 255.58 133.57 254.01 132.41 252.44 131.26 C 252.58 127.23 252.58 123.19 252.39 119.16 C 258.35 118.88 264.24 116.23 270.20 117.85 C 274.42 118.65 278.74 118.42 283.02 118.34 C 282.97 97.76 283.64 77.12 282.01 56.58 Z" />
<path fill="#000000" opacity="1.00" d=" M 444.45 69.84 C 446.85 78.66 446.94 87.92 447.10 97.01 C 447.36 127.67 447.15 158.34 447.22 189.00 C 447.12 213.02 447.47 237.05 446.96 261.07 C 446.39 271.68 445.12 283.38 437.48 291.47 C 429.94 298.68 418.67 298.08 408.99 298.25 C 393.28 298.85 377.55 298.49 361.83 298.70 C 361.80 293.84 361.98 288.98 361.57 284.13 C 361.90 284.02 362.57 283.79 362.90 283.68 C 379.26 282.98 395.68 283.91 412.05 282.82 C 420.48 282.76 430.11 281.81 436.00 275.01 C 442.97 266.76 444.25 255.46 444.60 245.06 C 445.49 214.38 444.93 183.69 445.08 153.00 C 444.96 125.28 445.48 97.55 444.45 69.84 Z" />
<path fill="#000000" opacity="1.00" d=" M 234.89 74.91 C 235.95 72.26 239.84 70.21 241.93 73.01 C 245.68 77.54 244.45 83.96 244.36 89.39 C 240.35 94.93 243.68 102.40 239.91 107.92 C 242.96 112.48 241.64 118.10 241.82 123.24 C 238.62 120.76 235.21 117.91 234.24 113.78 C 232.42 106.44 235.02 98.53 231.79 91.46 C 234.47 86.29 232.71 80.19 234.89 74.91 Z" />
<path fill="#000000" opacity="1.00" d=" M 501.20 72.38 C 508.20 72.47 515.21 72.46 522.22 72.36 C 522.24 77.78 522.20 83.21 522.36 88.64 C 515.49 88.69 508.61 88.56 501.74 88.71 C 501.68 100.62 501.89 112.53 501.64 124.43 C 500.38 119.72 500.80 114.81 500.79 110.00 C 500.93 97.46 500.50 84.91 501.20 72.38 Z" />
<path fill="#000000" opacity="1.00" d=" M 593.17 71.83 C 593.42 100.11 593.13 128.40 593.32 156.68 C 593.22 156.68 593.01 156.67 592.91 156.67 C 592.33 151.91 591.50 147.18 591.22 142.38 C 591.94 120.69 591.28 98.96 591.57 77.25 C 591.72 75.35 592.62 73.63 593.17 71.83 Z" />
<path fill="#000000" opacity="1.00" d=" M 782.31 72.38 C 786.49 72.47 790.68 72.25 794.87 72.53 C 795.12 72.73 795.62 73.14 795.87 73.35 C 795.60 78.43 795.73 83.52 795.72 88.61 C 791.20 88.69 786.68 88.57 782.17 88.74 C 782.38 83.29 782.31 77.83 782.31 72.38 Z" />
<path fill="#000000" opacity="1.00" d=" M 55.09 73.10 C 57.51 73.24 59.98 73.11 62.34 73.73 C 64.44 74.64 65.27 77.07 65.49 79.19 C 66.52 92.77 66.19 106.39 66.24 120.00 C 66.05 124.59 66.20 129.36 64.74 133.76 C 63.26 137.66 58.43 137.02 55.08 137.31 C 54.78 115.91 54.75 94.49 55.09 73.10 Z" />
<path fill="#000000" opacity="1.00" d=" M 395.33 73.34 C 398.56 73.46 403.17 72.37 404.76 76.14 C 406.37 80.45 406.17 85.23 405.93 89.76 C 403.65 89.68 401.38 89.69 399.11 89.78 C 398.76 140.68 399.08 191.59 398.95 242.50 C 397.71 242.37 396.49 242.25 395.26 242.14 C 395.33 185.87 395.20 129.60 395.33 73.34 Z" />
<path fill="#000000" opacity="1.00" d=" M 694.41 72.78 C 699.04 72.50 703.71 72.47 708.31 73.20 C 708.02 78.43 708.30 83.69 707.71 88.91 C 703.22 89.04 698.74 88.96 694.26 88.95 C 694.46 83.57 694.37 78.17 694.41 72.78 Z" />
<path fill="#000000" opacity="1.00" d=" M 538.49 77.07 C 539.46 79.28 539.41 81.74 538.49 83.95 C 537.43 82.08 537.42 78.93 538.49 77.07 Z" />
<path fill="#000000" opacity="1.00" d=" M 522.09 139.97 C 522.68 153.67 522.11 167.40 522.32 181.12 C 515.46 181.24 508.60 181.07 501.74 181.22 C 501.80 201.35 501.64 221.48 501.82 241.61 L 500.99 241.52 C 500.55 230.36 500.92 219.17 500.80 208.00 C 500.93 193.81 500.47 179.61 501.22 165.43 C 508.18 165.58 515.15 165.53 522.12 165.45 C 522.13 156.96 522.25 148.46 522.09 139.97 Z" />
<path fill="#000000" opacity="1.00" d=" M 181.45 140.77 C 184.67 140.71 187.89 140.73 191.11 140.71 C 191.12 154.20 191.09 167.68 191.12 181.17 C 184.28 181.17 177.44 181.13 170.60 181.19 C 170.48 201.53 170.47 221.87 170.60 242.21 C 167.23 241.50 163.77 241.43 160.34 241.46 C 160.36 216.17 160.42 190.88 160.31 165.59 C 167.40 165.50 174.49 165.41 181.59 165.58 C 181.47 157.31 181.68 149.04 181.45 140.77 Z" />
<path fill="#000000" opacity="1.00" d=" M 206.96 151.90 C 210.71 154.86 214.23 158.11 218.02 161.02 C 221.42 163.67 225.62 165.24 228.49 168.55 C 232.22 172.57 237.26 175.04 241.03 179.00 C 244.03 182.04 244.16 186.56 244.25 190.57 C 240.01 188.03 236.28 184.75 233.64 180.54 C 232.85 179.10 231.03 179.50 229.69 179.34 C 224.03 174.36 217.71 169.98 213.15 163.88 C 210.35 160.31 208.63 156.08 206.96 151.90 Z" />
<path fill="#000000" opacity="1.00" d=" M 782.31 165.45 C 786.71 165.54 791.11 165.46 795.52 165.43 C 795.55 165.72 795.61 166.31 795.64 166.60 C 795.83 171.45 795.64 176.31 795.73 181.16 C 791.22 181.16 786.71 181.16 782.20 181.16 C 782.38 175.93 782.31 170.69 782.31 165.45 Z" />
<path fill="#000000" opacity="1.00" d=" M 570.69 165.81 C 576.18 204.98 581.74 244.16 587.11 283.35 C 596.40 283.47 605.70 283.45 614.99 283.38 C 617.89 283.41 620.83 283.29 623.68 283.94 C 623.45 288.85 623.60 293.78 623.54 298.69 C 610.92 298.45 598.29 298.84 585.68 298.50 C 580.44 262.61 576.23 226.55 570.66 190.70 C 570.37 182.41 570.28 174.10 570.69 165.81 Z" />
<path fill="#000000" opacity="1.00" d=" M 281.83 167.60 C 285.87 172.18 287.51 178.32 288.55 184.20 C 289.83 193.07 289.96 202.06 289.89 211.00 C 289.83 227.35 290.01 243.69 289.79 260.04 C 289.39 267.04 289.29 274.24 286.86 280.91 C 286.04 283.21 283.97 284.83 283.19 287.13 C 282.02 292.36 276.98 295.66 272.15 297.11 C 262.67 299.74 252.73 299.15 243.00 299.27 C 235.42 299.16 227.54 299.46 220.35 296.68 C 213.07 293.65 209.63 285.97 206.84 279.13 C 210.50 281.15 214.45 282.70 218.62 283.25 C 231.50 284.83 244.53 284.45 257.43 283.32 C 262.36 282.73 267.49 281.60 271.49 278.48 C 274.94 275.70 276.48 271.40 278.68 267.69 C 281.55 262.63 282.24 256.73 282.58 251.03 C 283.29 236.70 283.04 222.34 283.08 208.00 C 283.07 194.53 283.24 181.01 281.83 167.60 Z" />
<path fill="#000000" opacity="1.00" d=" M 101.63 176.78 C 108.80 180.13 112.17 187.97 114.02 195.21 C 116.04 204.32 115.81 213.73 116.07 223.00 C 116.10 248.21 116.17 273.43 116.03 298.64 C 103.74 298.59 91.45 298.66 79.16 298.60 C 79.13 293.95 79.01 289.29 79.22 284.64 C 79.25 284.31 79.32 283.66 79.36 283.34 C 87.64 283.46 95.94 283.44 104.23 283.39 C 104.27 259.26 104.23 235.13 104.25 211.00 C 104.15 199.57 104.46 187.94 101.63 176.78 Z" />
<path fill="#000000" opacity="1.00" d=" M 55.30 182.54 C 57.50 183.56 60.17 184.23 61.48 186.46 C 64.91 191.99 65.20 198.71 66.16 204.98 C 67.11 210.96 66.09 216.99 66.20 223.00 C 66.31 243.14 66.14 263.28 66.29 283.41 C 66.81 283.65 67.84 284.14 68.36 284.38 C 68.12 289.14 68.25 293.90 68.24 298.66 C 55.85 298.59 43.46 298.62 31.08 298.64 C 31.15 293.97 30.93 289.31 31.13 284.65 C 31.18 284.32 31.28 283.66 31.33 283.33 C 39.20 283.46 47.07 283.44 54.94 283.40 C 54.81 253.93 54.95 224.47 54.87 195.00 C 54.84 190.85 54.97 186.69 55.30 182.54 Z" />
<path fill="#000000" opacity="1.00" d=" M 233.51 195.31 C 236.30 195.29 239.10 195.28 241.90 195.28 C 241.84 205.52 241.89 215.76 241.87 226.00 C 241.88 231.02 241.65 236.06 242.35 241.06 C 240.40 242.07 237.80 242.90 236.11 240.93 C 233.70 237.87 233.77 233.70 233.53 230.00 C 233.45 218.44 233.55 206.87 233.51 195.31 Z" />
<path fill="#000000" opacity="1.00" d=" M 538.27 201.34 C 539.12 203.53 540.28 205.66 540.59 208.02 C 540.66 210.72 539.22 213.13 538.30 215.60 C 537.91 210.86 537.92 206.08 538.27 201.34 Z" />
<path fill="#000000" opacity="1.00" d=" M 538.21 229.71 C 538.48 247.61 538.15 265.50 538.38 283.40 C 548.70 283.48 559.01 283.33 569.33 283.50 C 569.10 288.54 569.19 293.59 569.21 298.63 C 558.83 298.60 548.45 298.65 538.06 298.60 C 538.14 275.64 537.92 252.67 538.21 229.71 Z" />
<path fill="#000000" opacity="1.00" d=" M 181.44 258.27 C 184.52 257.00 187.84 256.98 191.12 257.09 C 191.10 270.94 191.11 284.80 191.11 298.66 C 171.92 298.64 152.73 298.52 133.54 298.73 C 133.49 294.00 133.52 289.27 133.45 284.54 C 133.46 284.25 133.49 283.66 133.50 283.36 C 149.51 283.47 165.51 283.43 181.52 283.41 C 181.54 275.03 181.69 266.64 181.44 258.27 Z" />
<path fill="#000000" opacity="1.00" d=" M 522.12 256.94 C 522.62 270.83 522.17 284.75 522.29 298.65 C 503.03 298.60 483.78 298.62 464.52 298.64 C 464.32 293.63 465.07 288.53 463.95 283.61 C 483.34 283.15 502.73 283.61 522.12 283.37 C 522.14 274.56 522.22 265.75 522.12 256.94 Z" />
</g>
</svg>
